<svg width="343" height="353" viewBox="0 0 343 353" fill="none" xmlns="http://www.w3.org/2000/svg">
<rect width="343" height="353" rx="20" fill="#C6EAFA"/>
<rect x="49.1802" y="180.393" width="243.379" height="132.375" rx="10" fill="#51B7E3"/>
<path d="M211.853 227.114C211.853 234.281 206.489 240.092 199.873 240.092C193.257 240.092 187.893 234.281 187.893 227.114C187.893 219.946 193.257 214.136 199.873 214.136C206.489 214.136 211.853 219.946 211.853 227.114Z" fill="white"/>
<path d="M211.853 227.114C211.853 234.281 206.489 240.092 199.873 240.092C193.257 240.092 187.893 234.281 187.893 227.114C187.893 219.946 193.257 214.136 199.873 214.136C206.489 214.136 211.853 219.946 211.853 227.114Z" stroke="black"/>
<rect x="184.11" y="155.735" width="42.875" height="32.4449" rx="5" fill="#51B7E2"/>
<rect x="238.335" y="155.735" width="42.875" height="32.4449" rx="5" fill="#51B7E2"/>
<ellipse cx="141.235" cy="226.465" rx="11.3493" ry="12.329" fill="white"/>
<path d="M150.062 260.857C156.843 271.158 161.496 274.739 172.131 275.132C183.335 273.329 187.537 270.129 191.676 260.857" stroke="white" stroke-width="2.5"/>
<rect x="54.2242" y="109.283" width="123.174" height="71.1105" rx="5" fill="#1894C8"/>
<rect x="119.96" y="96.0368" width="21.6991" height="17.4291" rx="5" fill="#1894C8"/>
<rect x="90" y="96" width="21.6991" height="17.4291" rx="5" fill="#1894C8"/>
<rect x="60.1644" y="96.0368" width="21.6991" height="17.4291" rx="5" fill="#1894C8"/>
<rect x="149.956" y="96.0368" width="21.6991" height="17.4291" rx="5" fill="#1894C8"/>
<path d="M132.408 154.574C132.408 159.232 124.438 164.422 115.384 164.422C106.33 164.422 98.3602 159.232 98.3602 154.574C98.3602 149.915 106.33 152.627 115.384 152.627C124.438 152.627 132.408 149.915 132.408 154.574Z" fill="white"/>
<path d="M81.5493 128.482C84.8676 133.833 87.1792 135.808 92.1951 136.124C92.5422 136.146 92.8912 136.122 93.2331 136.058C98.52 135.072 100.58 133.309 102.61 128.482" stroke="white"/>
<path d="M125.507 128.482C128.825 133.833 131.137 135.808 136.153 136.124C136.5 136.146 136.849 136.122 137.191 136.058C142.478 135.072 144.538 133.309 146.568 128.482" stroke="white"/>
<rect width="123.588" height="70.8843" rx="5" transform="matrix(0.938258 0.345937 -0.328758 0.944414 201.109 55.2972)" fill="#0D557E"/>
<path d="M247.669 124.455C239.477 125.23 236.513 123.169 232.567 117.444" stroke="white"/>
<path d="M218.762 80.7045C224.681 74.9872 228.282 74.7476 234.939 76.7592" stroke="white"/>
<rect width="21.772" height="17.3736" rx="5" transform="matrix(0.938258 0.345937 -0.328758 0.944414 267.334 65.644)" fill="#0D557E"/>
<rect width="21.772" height="17.3736" rx="5" transform="matrix(0.938258 0.345937 -0.328758 0.944414 239.712 55)" fill="#0D557E"/>
<rect width="21.772" height="17.3736" rx="5" transform="matrix(0.938258 0.345937 -0.328758 0.944414 211.042 44.8891)" fill="#0D557E"/>
<rect width="21.772" height="17.3736" rx="5" transform="matrix(0.938258 0.345937 -0.328758 0.944414 295.573 76.0555)" fill="#0D557E"/>
<ellipse cx="264.816" cy="106.419" rx="8.82721" ry="9.08456" fill="white"/>
<path d="M271.5 90.5C279.311 93.0906 281.194 96.1701 282.5 103" stroke="white"/>
<ellipse cx="232.029" cy="94.739" rx="8.82721" ry="9.08456" fill="white"/>
</svg>
